<?xml version="1.0" standalone="no"?>
<!DOCTYPE svg PUBLIC "-//W3C//DTD SVG 20010904//EN" "http://www.w3.org/TR/2001/REC-SVG-20010904/DTD/svg10.dtd">
<!-- Created using Krita: https://krita.org -->
<svg xmlns="http://www.w3.org/2000/svg" 
    xmlns:xlink="http://www.w3.org/1999/xlink"
    xmlns:krita="http://krita.org/namespaces/svg/krita"
    xmlns:sodipodi="http://sodipodi.sourceforge.net/DTD/sodipodi-0.dtd"
    width="1024.24pt"
    height="1024.24pt"
    viewBox="0 0 1024.24 1024.24">
<defs/>
<path id="shape0" transform="matrix(6.85595757022916 0 0 6.31298882417698 43.5549775694199 45.0992491538324)" fill="none" stroke="#ffffff" stroke-width="1.00022956140835" stroke-linecap="square" stroke-linejoin="bevel" d="M20.5047 0L28.7566 0.750172L32.7575 2.25052L38.7589 5.00115L44.0101 10.0023L50.2615 16.2537L56.0129 24.5056L61.014 33.2576L64.5148 39.259L68.0156 46.2606L71.7665 54.0124L73.7669 59.5137L73.7669 65.7651L65.265 65.265L59.0135 64.0147L53.5123 63.0145L41.5095 60.7639L33.0076 58.0133L20.5047 50.0115L8.50195 39.259L4.75109 35.5081L1.7504 30.507L0 24.0055L0.750172 16.5038L6.00138 6.75155L11.0025 2.00046C11.0025 1.83375 14.1699 1.16693 20.5047 0Z" sodipodi:nodetypes="ccccccccccccccccccccccccccc"/><ellipse id="shape1" transform="matrix(6.85595757022916 0 0 6.31298882417698 187.563126163463 165.073561511887)" rx="12.0027547369001" ry="11.0025251754918" cx="12.0027547369001" cy="11.0025251754918" fill="#ffffff" fill-rule="evenodd" stroke="#ffffff" stroke-width="19.2344144658825" stroke-linecap="square" stroke-linejoin="bevel"/><circle id="shape2" transform="matrix(6.85595757022916 0 0 6.31298882417698 113.84466180291 109.822226945884)" r="10.0022956140835" cx="10.0022956140835" cy="10.0022956140835" fill="#ffffff" fill-rule="evenodd" stroke="#ffffff" stroke-width="19.2344144658825" stroke-linecap="square" stroke-linejoin="bevel"/><ellipse id="shape01" transform="matrix(6.85595737034846 0 0 6.31298864012615 131.19198850414 113.020134922248)" rx="12.0027547369001" ry="11.0025251754918" cx="12.0027547369001" cy="11.0025251754918" fill="#ffffff" fill-rule="evenodd" stroke="#ffffff" stroke-width="19.2344144658825" stroke-linecap="square" stroke-linejoin="bevel"/><ellipse id="shape011" transform="matrix(6.85595737034846 0 0 6.31298864012615 174.226925768895 141.484395130341)" rx="12.0027547369001" ry="11.0025251754918" cx="12.0027547369001" cy="11.0025251754918" fill="#ffffff" fill-rule="evenodd" stroke="#ffffff" stroke-width="19.2344144658825" stroke-linecap="square" stroke-linejoin="bevel"/><ellipse id="shape02" transform="matrix(6.85595737034846 0 0 6.31298864012615 125.13072973445 144.833131625412)" rx="12.0027547369001" ry="11.0025251754918" cx="12.0027547369001" cy="11.0025251754918" fill="#ffffff" fill-rule="evenodd" stroke="#ffffff" stroke-width="19.2344144658825" stroke-linecap="square" stroke-linejoin="bevel"/><ellipse id="shape03" transform="matrix(6.85595737034846 0 0 6.31298864012615 111.899955192003 108.323970912678)" rx="12.0027547369001" ry="11.0025251754918" cx="12.0027547369001" cy="11.0025251754918" fill="#ffffff" fill-rule="evenodd" stroke="#ffffff" stroke-width="19.2344144658825" stroke-linecap="square" stroke-linejoin="bevel"/><ellipse id="shape04" transform="matrix(6.85595737034846 0 0 6.31298864012615 214.837359525771 203.43602028913)" rx="12.0027547369001" ry="11.0025251754918" cx="12.0027547369001" cy="11.0025251754918" fill="#ffffff" fill-rule="evenodd" stroke="#ffffff" stroke-width="19.2344144658825" stroke-linecap="square" stroke-linejoin="bevel"/><path id="shape3" transform="matrix(6.85595757022916 0 0 6.31298882417698 274.921374597989 239.658437601918)" fill="none" stroke="#ffffff" stroke-width="2.58059226843353" stroke-linecap="square" stroke-linejoin="bevel" d="M0 25.6385L38.723 34.3026L24.224 0L0 25.6385" sodipodi:nodetypes="cccc"/><path id="shape4" transform="matrix(6.85595757022916 0 0 6.31298882417698 320.986941247578 270.913311555915)" fill="none" stroke="#ffffff" stroke-width="2.58059226843353" stroke-linecap="square" stroke-linejoin="bevel" d="M0 20.4224L29.7937 27.3183L18.1238 0L0 20.4224" sodipodi:nodetypes="cccc"/><path id="shape5" transform="matrix(6.85595757022916 0 0 6.31298882417698 355.536116234785 304.400676506605)" fill="none" stroke="#ffffff" stroke-width="2.58059226843353" stroke-linecap="square" stroke-linejoin="bevel" d="M0.0884086 14.1454L22.5105 19.2731L13.7917 0L0 15.2063L0.0884086 14.1454" sodipodi:nodetypes="ccccc"/><path id="shape6" transform="matrix(6.85595757022916 0 0 6.31298882417698 380.993403067454 289.889485027966)" fill="none" stroke="#ffffff" stroke-width="2.58059226843353" stroke-linecap="square" stroke-linejoin="bevel" d="M0 15.9136L17.5933 20.2456L8.57564 0L0 15.9136" sodipodi:nodetypes="cccc"/><path id="shape7" transform="matrix(6.85595757022916 0 0 6.31298882417698 403.420060515276 295.47071251976)" fill="none" stroke="#ffffff" stroke-width="2.58059226843353" stroke-linecap="square" stroke-linejoin="bevel" d="M0 12.9961L12.2888 18.1238L5.21611 0L0 12.9961" sodipodi:nodetypes="cccc"/><path id="shape8" transform="matrix(6.85595757022916 0 0 6.31298882417698 405.844564023154 328.399954721275)" fill="none" stroke="#ffffff" stroke-width="2.58059226843353" stroke-linecap="square" stroke-linejoin="bevel" d="M4.42043 0L0 6.54224L8.13359 10.167L8.92927 2.29862L4.42043 0" sodipodi:nodetypes="ccccc"/><ellipse id="shape9" transform="matrix(6.85595757022916 0 0 6.31298882417698 413.861663469109 335.56338866701)" rx="3.50080346492922" ry="4.00091824563339" cx="3.50080346492922" cy="4.00091824563339" fill="#ffffff" fill-rule="evenodd" stroke="#ffffff" stroke-width="2.58059226843353" stroke-linecap="square" stroke-linejoin="bevel"/><ellipse id="shape10" transform="matrix(6.85595757022916 0 0 6.31298882417698 281.904649336968 353.171720669546)" rx="6.00137736845008" ry="6.00137736845005" cx="6.00137736845008" cy="6.00137736845005" fill="#ffffff" fill-rule="evenodd" stroke="#ffffff" stroke-width="2.58059226843353" stroke-linecap="square" stroke-linejoin="bevel"/><ellipse id="shape11" transform="matrix(6.85595757022916 0 0 6.31298882417698 252.691297499711 85.6013930640218)" rx="7.00160692985844" ry="6.00137736845005" cx="7.00160692985844" cy="6.00137736845005" fill="#ffffff" fill-rule="evenodd" stroke="#ffffff" stroke-width="2.58059226843353" stroke-linecap="square" stroke-linejoin="bevel"/><ellipse id="shape05" transform="matrix(6.85595737034846 0 0 6.31298864012615 217.866592900051 193.800006090072)" rx="12.0027547369001" ry="11.0025251754918" cx="12.0027547369001" cy="11.0025251754918" fill="#ffffff" fill-rule="evenodd" stroke="#ffffff" stroke-width="19.2344144658825" stroke-linecap="square" stroke-linejoin="bevel"/><ellipse id="shape12" transform="matrix(6.85595757022916 0 0 6.31298882417698 395.52289172252 257.689079886734)" rx="6.00137736845005" ry="5.82145373263717" cx="6.00137736845005" cy="5.82145373263717" fill="#ffffff" fill-rule="evenodd" stroke="#ffffff" stroke-width="2.58059226843353" stroke-linecap="square" stroke-linejoin="bevel"/><ellipse id="shape06" transform="matrix(6.85595745048576 0 0 6.31298871391684 425.829120853204 293.4089204299)" rx="6.00137736845005" ry="6.50149214915425" cx="6.00137736845005" cy="6.50149214915425" fill="#ffffff" fill-rule="evenodd" stroke="#ffffff" stroke-width="2.58059226843353" stroke-linecap="square" stroke-linejoin="bevel"/><ellipse id="shape07" transform="matrix(6.85595745048576 0 0 6.31298871391684 462.196674140174 374.894843308609)" rx="5.04058053773843" ry="5.20259461207309" cx="5.04058053773843" cy="5.20259461207309" fill="#ffffff" fill-rule="evenodd" stroke="#ffffff" stroke-width="2.58059226843353" stroke-linecap="square" stroke-linejoin="bevel"/><ellipse id="shape08" transform="matrix(6.85595745048576 0 0 6.31298871391684 377.339049803914 353.686178449768)" rx="6.00137736845005" ry="6.50149214915425" cx="6.00137736845005" cy="6.50149214915425" fill="#ffffff" fill-rule="evenodd" stroke="#ffffff" stroke-width="2.58059226843353" stroke-linecap="square" stroke-linejoin="bevel"/><ellipse id="shape09" transform="matrix(6.85595745048576 0 0 6.31298871391684 464.621177692644 391.638526091907)" rx="4.06808547524275" ry="4.49532547571252" cx="4.06808547524275" cy="4.49532547571252" fill="#ffffff" fill-rule="evenodd" stroke="#ffffff" stroke-width="2.58059226843353" stroke-linecap="square" stroke-linejoin="bevel"/><ellipse id="shape010" transform="matrix(6.85595745048576 0 0 6.31298871391684 332.485754293607 343.081838056737)" rx="6.00137736845005" ry="6.50149214915425" cx="6.00137736845005" cy="6.50149214915425" fill="#ffffff" fill-rule="evenodd" stroke="#ffffff" stroke-width="2.58059226843353" stroke-linecap="square" stroke-linejoin="bevel"/><ellipse id="shape0111" transform="matrix(6.85595745048576 0 0 6.31298871391684 243.385253201354 325.780033380212)" rx="6.00137736845005" ry="6.50149214915425" cx="6.00137736845005" cy="6.50149214915425" fill="#ffffff" fill-rule="evenodd" stroke="#ffffff" stroke-width="2.58059226843353" stroke-linecap="square" stroke-linejoin="bevel"/><ellipse id="shape012" transform="matrix(6.85595745048576 0 0 6.31298871391684 436.133275972342 341.965592593731)" rx="6.00137736845005" ry="6.50149214915425" cx="6.00137736845005" cy="6.50149214915425" fill="#ffffff" fill-rule="evenodd" stroke="#ffffff" stroke-width="2.58059226843353" stroke-linecap="square" stroke-linejoin="bevel"/><ellipse id="shape013" transform="matrix(6.85595745048576 0 0 6.31298871391684 457.347680994313 366.522992779764)" rx="6.00137736845005" ry="6.50149214915425" cx="6.00137736845005" cy="6.50149214915425" fill="#ffffff" fill-rule="evenodd" stroke="#ffffff" stroke-width="2.58059226843353" stroke-linecap="square" stroke-linejoin="bevel"/><ellipse id="shape014" transform="matrix(6.85595745048576 0 0 6.31298871391684 358.549166177734 360.941765464758)" rx="6.00137736845005" ry="6.50149214915425" cx="6.00137736845005" cy="6.50149214915425" fill="#ffffff" fill-rule="evenodd" stroke="#ffffff" stroke-width="2.58059226843353" stroke-linecap="square" stroke-linejoin="bevel"/><ellipse id="shape015" transform="matrix(6.85595745048576 0 0 6.31298871391684 56.0923165944558 167.273176487784)" rx="6.00137736845005" ry="6.50149214915425" cx="6.00137736845005" cy="6.50149214915425" fill="#ffffff" fill-rule="evenodd" stroke="#ffffff" stroke-width="2.58059226843353" stroke-linecap="square" stroke-linejoin="bevel"/><ellipse id="shape016" transform="matrix(6.85595745048576 0 0 6.31298871391684 149.435705081119 272.200257192917)" rx="6.00137736845005" ry="6.50149214915425" cx="6.00137736845005" cy="6.50149214915425" fill="#ffffff" fill-rule="evenodd" stroke="#ffffff" stroke-width="2.58059226843353" stroke-linecap="square" stroke-linejoin="bevel"/><path id="shape0111" transform="matrix(6.85595750486097 0 0 6.31298876398572 733.758608764113 177.706769996583)" fill="none" stroke="#ffffff" stroke-width="1.70039025439419" stroke-linecap="square" stroke-linejoin="bevel" d="M3.71316 0.0884086L5.83497 0L7.60314 0.442043L9.10609 0.707269L10.167 2.47544L10.5206 3.97839L10.4322 5.1277L10.4322 7.95678L9.54813 9.37132L7.60314 11.4047L4.68566 12.2004L2.21022 10.9627L0.265226 8.75246L0 5.48134L0.530452 2.29862C0.530452 2.29862 1.59136 1.56189 3.71316 0.0884086Z" sodipodi:nodetypes="cccccccccccccccc"/><path id="shape111" transform="matrix(6.85595750486097 0 0 6.31298876398572 509.260944193892 75.5703083927628)" fill="none" stroke="#ffffff" stroke-width="1.70039025439419" stroke-linecap="square" stroke-linejoin="bevel" d="M26.6447 0L20.5445 0.176817L15.5936 1.23772L12.9414 2.0334L9.22821 5.39293L6.66435 7.69155L3.92369 10.7859L1.44825 14.499L0 19.8919L0 33.4185L0.917793 35.3635L2.59756 38.9882L5.69186 44.3811L9.1398 48.1827L14.2675 50.9234L21.6054 53.3104L29.297 53.9293L38.1378 52.4263L45.2989 47.8291L49.631 42.613L52.1948 37.0432L52.8137 26.6994L51.8412 18.0354L48.8353 11.4047L42.8235 5.21611L40.0828 2.65226L35.8392 0.176817C35.8392 0.176817 32.7744 0.117878 26.6447 0Z" sodipodi:nodetypes="cccccccccccccccccccccccccccc"/><ellipse id="shape21" transform="matrix(6.85595750486097 0 0 6.31298876398572 564.727321006959 171.387971980742)" rx="9.0020660526751" ry="8.00183649126677" cx="9.0020660526751" cy="8.00183649126677" fill="#ffffff" fill-rule="evenodd" stroke="#ffffff" stroke-width="1.70039025439419" stroke-linecap="square" stroke-linejoin="bevel"/><ellipse id="shape31" transform="matrix(6.85595750486097 0 0 6.31298876398572 605.872509215685 101.929154172395)" rx="7.50172171056261" ry="8.00183649126677" cx="7.50172171056261" cy="8.00183649126677" fill="#ffffff" fill-rule="evenodd" stroke="#ffffff" stroke-width="1.70039025439419" stroke-linecap="square" stroke-linejoin="bevel"/><ellipse id="shape41" transform="matrix(6.85595750486097 0 0 6.31298876398572 544.154726902595 146.130220050442)" rx="8.50195127197094" ry="8.00183649126677" cx="8.50195127197094" cy="8.00183649126677" fill="#ffffff" fill-rule="evenodd" stroke="#ffffff" stroke-width="1.70039025439419" stroke-linecap="square" stroke-linejoin="bevel"/><ellipse id="shape021" transform="matrix(6.85595741108003 0 0 6.31298867763191 515.470324647263 172.519271998454)" rx="8.50195127197094" ry="8.00183649126677" cx="8.50195127197094" cy="8.00183649126677" fill="#ffffff" fill-rule="evenodd" stroke="#ffffff" stroke-width="1.70039025439419" stroke-linecap="square" stroke-linejoin="bevel"/><ellipse id="shape031" transform="matrix(6.85595741108003 0 0 6.31298867763191 520.319331591993 142.938766725218)" rx="8.50195127197094" ry="8.00183649126677" cx="8.50195127197094" cy="8.00183649126677" fill="#ffffff" fill-rule="evenodd" stroke="#ffffff" stroke-width="1.70039025439419" stroke-linecap="square" stroke-linejoin="bevel"/><ellipse id="shape041" transform="matrix(6.85595741108003 0 0 6.31298867763191 542.745988711379 116.148875157002)" rx="8.50195127197094" ry="8.00183649126677" cx="8.50195127197094" cy="8.00183649126677" fill="#ffffff" fill-rule="evenodd" stroke="#ffffff" stroke-width="1.70039025439419" stroke-linecap="square" stroke-linejoin="bevel"/><ellipse id="shape051" transform="matrix(6.85595741108003 0 0 6.31298867763191 565.172645830766 89.3589835887868)" rx="8.50195127197094" ry="8.00183649126677" cx="8.50195127197094" cy="8.00183649126677" fill="#ffffff" fill-rule="evenodd" stroke="#ffffff" stroke-width="1.70039025439419" stroke-linecap="square" stroke-linejoin="bevel"/><ellipse id="shape061" transform="matrix(6.85595741108003 0 0 6.31298867763191 584.568673609704 80.9871424737191)" rx="8.50195127197094" ry="8.00183649126677" cx="8.50195127197094" cy="8.00183649126677" fill="#ffffff" fill-rule="evenodd" stroke="#ffffff" stroke-width="1.70039025439419" stroke-linecap="square" stroke-linejoin="bevel"/><ellipse id="shape071" transform="matrix(6.85595741108003 0 0 6.31298867763191 620.330099827104 78.1965287686984)" rx="8.50195127197094" ry="8.00183649126677" cx="8.50195127197094" cy="8.00183649126677" fill="#ffffff" fill-rule="evenodd" stroke="#ffffff" stroke-width="1.70039025439419" stroke-linecap="square" stroke-linejoin="bevel"/><ellipse id="shape081" transform="matrix(6.85595741108003 0 0 6.31298867763191 599.721820311983 159.124326214349)" rx="8.50195127197094" ry="8.00183649126677" cx="8.50195127197094" cy="8.00183649126677" fill="#ffffff" fill-rule="evenodd" stroke="#ffffff" stroke-width="1.70039025439419" stroke-linecap="square" stroke-linejoin="bevel"/><ellipse id="shape091" transform="matrix(6.85595741108003 0 0 6.31298867763191 643.969008682673 75.4059150636782)" rx="8.50195127197094" ry="8.00183649126677" cx="8.50195127197094" cy="8.00183649126677" fill="#ffffff" fill-rule="evenodd" stroke="#ffffff" stroke-width="1.70039025439419" stroke-linecap="square" stroke-linejoin="bevel"/><ellipse id="shape0101" transform="matrix(6.85595741108003 0 0 6.31298867763191 579.11354079687 149.07811687627)" rx="8.50195127197094" ry="8.00183649126677" cx="8.50195127197094" cy="8.00183649126677" fill="#ffffff" fill-rule="evenodd" stroke="#ffffff" stroke-width="1.70039025439419" stroke-linecap="square" stroke-linejoin="bevel"/><ellipse id="shape01111" transform="matrix(6.85595741108003 0 0 6.31298867763191 665.183414065877 78.7546515097027)" rx="8.50195127197094" ry="8.00183649126677" cx="8.50195127197094" cy="8.00183649126677" fill="#ffffff" fill-rule="evenodd" stroke="#ffffff" stroke-width="1.70039025439419" stroke-linecap="square" stroke-linejoin="bevel"/><ellipse id="shape0121" transform="matrix(6.85595741108003 0 0 6.31298867763191 513.65194704299 221.075950465843)" rx="8.50195127197094" ry="8.00183649126677" cx="8.50195127197094" cy="8.00183649126677" fill="#ffffff" fill-rule="evenodd" stroke="#ffffff" stroke-width="1.70039025439419" stroke-linecap="square" stroke-linejoin="bevel"/><ellipse id="shape0131" transform="matrix(6.85595741108003 0 0 6.31298867763191 516.076450515347 125.078839013074)" rx="8.50195127197094" ry="8.00183649126677" cx="8.50195127197094" cy="8.00183649126677" fill="#ffffff" fill-rule="evenodd" stroke="#ffffff" stroke-width="1.70039025439419" stroke-linecap="square" stroke-linejoin="bevel"/><ellipse id="shape0141" transform="matrix(6.85595741108003 0 0 6.31298867763191 542.139862843295 101.637683890889)" rx="8.50195127197094" ry="8.00183649126677" cx="8.50195127197094" cy="8.00183649126677" fill="#ffffff" fill-rule="evenodd" stroke="#ffffff" stroke-width="1.70039025439419" stroke-linecap="square" stroke-linejoin="bevel"/><ellipse id="shape0151" transform="matrix(6.85595741108003 0 0 6.31298867763191 551.83787673276 93.2658427758221)" rx="8.50195127197094" ry="8.00183649126677" cx="8.50195127197094" cy="8.00183649126677" fill="#ffffff" fill-rule="evenodd" stroke="#ffffff" stroke-width="1.70039025439419" stroke-linecap="square" stroke-linejoin="bevel"/><ellipse id="shape0161" transform="matrix(6.85595741108003 0 0 6.31298867763191 532.44184895383 251.214578480089)" rx="8.50195127197094" ry="8.00183649126677" cx="8.50195127197094" cy="8.00183649126677" fill="#ffffff" fill-rule="evenodd" stroke="#ffffff" stroke-width="1.70039025439419" stroke-linecap="square" stroke-linejoin="bevel"/><ellipse id="shape017" transform="matrix(6.85595741108003 0 0 6.31298867763191 546.382743919933 270.190751674235)" rx="8.50195127197094" ry="8.00183649126677" cx="8.50195127197094" cy="8.00183649126677" fill="#ffffff" fill-rule="evenodd" stroke="#ffffff" stroke-width="1.70039025439419" stroke-linecap="square" stroke-linejoin="bevel"/><ellipse id="shape018" transform="matrix(6.85595741108003 0 0 6.31298867763191 566.384897566957 288.050679386379)" rx="8.50195127197094" ry="8.00183649126677" cx="8.50195127197094" cy="8.00183649126677" fill="#ffffff" fill-rule="evenodd" stroke="#ffffff" stroke-width="1.70039025439419" stroke-linecap="square" stroke-linejoin="bevel"/><ellipse id="shape019" transform="matrix(6.85595741108003 0 0 6.31298867763191 636.695498265572 232.238405285931)" rx="8.50195127197094" ry="8.00183649126677" cx="8.50195127197094" cy="8.00183649126677" fill="#ffffff" fill-rule="evenodd" stroke="#ffffff" stroke-width="1.70039025439419" stroke-linecap="square" stroke-linejoin="bevel"/><ellipse id="shape020" transform="matrix(6.85595741108003 0 0 6.31298867763191 597.90344270771 305.910607098522)" rx="8.50195127197094" ry="8.00183649126677" cx="8.50195127197094" cy="8.00183649126677" fill="#ffffff" fill-rule="evenodd" stroke="#ffffff" stroke-width="1.70039025439419" stroke-linecap="square" stroke-linejoin="bevel"/><ellipse id="shape0211" transform="matrix(6.85595741108003 0 0 6.31298867763191 628.209736112295 314.28244821359)" rx="8.50195127197094" ry="8.00183649126677" cx="8.50195127197094" cy="8.00183649126677" fill="#ffffff" fill-rule="evenodd" stroke="#ffffff" stroke-width="1.70039025439419" stroke-linecap="square" stroke-linejoin="bevel"/><ellipse id="shape022" transform="matrix(6.85595741108003 0 0 6.31298867763191 670.638546878698 252.888946703095)" rx="8.50195127197094" ry="8.00183649126677" cx="8.50195127197094" cy="8.00183649126677" fill="#ffffff" fill-rule="evenodd" stroke="#ffffff" stroke-width="1.70039025439419" stroke-linecap="square" stroke-linejoin="bevel"/><ellipse id="shape023" transform="matrix(6.85595741108003 0 0 6.31298867763191 667.607917538248 311.491834508563)" rx="8.50195127197094" ry="8.00183649126677" cx="8.50195127197094" cy="8.00183649126677" fill="#ffffff" fill-rule="evenodd" stroke="#ffffff" stroke-width="1.70039025439419" stroke-linecap="square" stroke-linejoin="bevel"/><ellipse id="shape024" transform="matrix(6.85595741108003 0 0 6.31298867763191 702.157092019466 288.608802127382)" rx="8.50195127197094" ry="8.00183649126677" cx="8.50195127197094" cy="8.00183649126677" fill="#ffffff" fill-rule="evenodd" stroke="#ffffff" stroke-width="1.70039025439419" stroke-linecap="square" stroke-linejoin="bevel"/><ellipse id="shape025" transform="matrix(6.85595741108003 0 0 6.31298867763191 708.824476568468 259.028296854147)" rx="8.50195127197094" ry="8.00183649126677" cx="8.50195127197094" cy="8.00183649126677" fill="#ffffff" fill-rule="evenodd" stroke="#ffffff" stroke-width="1.70039025439419" stroke-linecap="square" stroke-linejoin="bevel"/><ellipse id="shape026" transform="matrix(6.85595741108003 0 0 6.31298867763191 720.946993930305 275.213856343278)" rx="8.50195127197094" ry="8.00183649126677" cx="8.50195127197094" cy="8.00183649126677" fill="#ffffff" fill-rule="evenodd" stroke="#ffffff" stroke-width="1.70039025439419" stroke-linecap="square" stroke-linejoin="bevel"/><ellipse id="shape027" transform="matrix(6.85595741108003 0 0 6.31298867763191 584.568673609704 181.449235854526)" rx="8.50195127197094" ry="8.00183649126677" cx="8.50195127197094" cy="8.00183649126677" fill="#ffffff" fill-rule="evenodd" stroke="#ffffff" stroke-width="1.70039025439419" stroke-linecap="square" stroke-linejoin="bevel"/><ellipse id="shape028" transform="matrix(6.85595741108003 0 0 6.31298867763191 651.925332281334 240.314255094475)" rx="8.50195127197094" ry="8.00183649126677" cx="8.50195127197094" cy="8.00183649126677" fill="#ffffff" fill-rule="evenodd" stroke="#ffffff" stroke-width="1.70039025439419" stroke-linecap="square" stroke-linejoin="bevel"/><ellipse id="shape029" transform="matrix(6.85595741108003 0 0 6.31298867763191 692.33932748431 275.633266638448)" rx="8.50195127197094" ry="8.00183649126677" cx="8.50195127197094" cy="8.00183649126677" fill="#ffffff" fill-rule="evenodd" stroke="#ffffff" stroke-width="1.70039025439419" stroke-linecap="square" stroke-linejoin="bevel"/><ellipse id="shape030" transform="matrix(6.85595741108003 0 0 6.31298867763191 719.281990952968 299.17927433443)" rx="8.50195127197094" ry="8.00183649126677" cx="8.50195127197094" cy="8.00183649126677" fill="#ffffff" fill-rule="evenodd" stroke="#ffffff" stroke-width="1.70039025439419" stroke-linecap="square" stroke-linejoin="bevel"/><ellipse id="shape0311" transform="matrix(6.85595741108003 0 0 6.31298867763191 721.373493829869 252.401816663845)" rx="8.50195127197094" ry="8.00183649126677" cx="8.50195127197094" cy="8.00183649126677" fill="#ffffff" fill-rule="evenodd" stroke="#ffffff" stroke-width="1.70039025439419" stroke-linecap="square" stroke-linejoin="bevel"/><ellipse id="shape032" transform="matrix(6.85595741108003 0 0 6.31298867763191 727.434752510781 94.4530809595779)" rx="4.70480895096142" ry="4.1626035595452" cx="4.70480895096142" cy="4.1626035595452" fill="#ffffff" fill-rule="evenodd" stroke="#ffffff" stroke-width="1.70039025439419" stroke-linecap="square" stroke-linejoin="bevel"/><ellipse id="shape033" transform="matrix(6.85595726778817 0 0 6.31298854568829 751.23772300275 113.88544332852)" rx="4.70480895096142" ry="4.1626035595452" cx="4.70480895096142" cy="4.1626035595452" fill="#ffffff" fill-rule="evenodd" stroke="#ffffff" stroke-width="1.70039025439419" stroke-linecap="square" stroke-linejoin="bevel"/><ellipse id="shape034" transform="matrix(6.85595726778817 0 0 6.31298854568829 768.758379648434 129.08100661096)" rx="4.70480895096142" ry="4.1626035595452" cx="4.70480895096142" cy="4.1626035595452" fill="#ffffff" fill-rule="evenodd" stroke="#ffffff" stroke-width="1.70039025439419" stroke-linecap="square" stroke-linejoin="bevel"/><ellipse id="shape035" transform="matrix(6.85595726778817 0 0 6.31298854568829 785.287824356956 142.932200405949)" rx="4.70480895096142" ry="4.1626035595452" cx="4.70480895096142" cy="4.1626035595452" fill="#ffffff" fill-rule="evenodd" stroke="#ffffff" stroke-width="1.70039025439419" stroke-linecap="square" stroke-linejoin="bevel"/><ellipse id="shape036" transform="matrix(6.85595726778817 0 0 6.31298854568829 801.817269065478 156.783394200926)" rx="4.70480895096142" ry="4.1626035595452" cx="4.70480895096142" cy="4.1626035595452" fill="#ffffff" fill-rule="evenodd" stroke="#ffffff" stroke-width="1.70039025439419" stroke-linecap="square" stroke-linejoin="bevel"/><ellipse id="shape037" transform="matrix(6.85595726778817 0 0 6.31298854568829 801.375189467433 203.563829715182)" rx="4.70480895096142" ry="4.1626035595452" cx="4.70480895096142" cy="4.1626035595452" fill="#ffffff" fill-rule="evenodd" stroke="#ffffff" stroke-width="1.70039025439419" stroke-linecap="square" stroke-linejoin="bevel"/><ellipse id="shape038" transform="matrix(6.85595726778817 0 0 6.31298854568829 798.344560126984 278.352277009782)" rx="4.70480895096142" ry="4.1626035595452" cx="4.70480895096142" cy="4.1626035595452" fill="#ffffff" fill-rule="evenodd" stroke="#ffffff" stroke-width="1.70039025439419" stroke-linecap="square" stroke-linejoin="bevel"/><ellipse id="shape039" transform="matrix(6.85595726778817 0 0 6.31298854568829 798.344560126984 247.655526254532)" rx="4.70480895096142" ry="4.1626035595452" cx="4.70480895096142" cy="4.1626035595452" fill="#ffffff" fill-rule="evenodd" stroke="#ffffff" stroke-width="1.70039025439419" stroke-linecap="square" stroke-linejoin="bevel"/><ellipse id="shape040" transform="matrix(6.85595726778817 0 0 6.31298854568829 668.633624355385 163.937115103861)" rx="4.70480895096142" ry="4.1626035595452" cx="4.70480895096142" cy="4.1626035595452" fill="#ffffff" fill-rule="evenodd" stroke="#ffffff" stroke-width="1.70039025439419" stroke-linecap="square" stroke-linejoin="bevel"/><ellipse id="shape0411" transform="matrix(6.85595726778817 0 0 6.31298854568829 662.572365674474 200.215093269152)" rx="4.70480895096142" ry="4.1626035595452" cx="4.70480895096142" cy="4.1626035595452" fill="#ffffff" fill-rule="evenodd" stroke="#ffffff" stroke-width="1.70039025439419" stroke-linecap="square" stroke-linejoin="bevel"/><ellipse id="shape042" transform="matrix(6.85595726778817 0 0 6.31298854568829 733.484760995087 82.2324540538837)" rx="4.70480895096142" ry="4.1626035595452" cx="4.70480895096142" cy="4.1626035595452" fill="#ffffff" fill-rule="evenodd" stroke="#ffffff" stroke-width="1.70039025439419" stroke-linecap="square" stroke-linejoin="bevel"/><ellipse id="shape03111" transform="matrix(6.85595746006394 0 0 6.31298872273647 111.155877741951 111.901047459648)" rx="12.0027547369001" ry="11.0025251754918" cx="12.0027547369001" cy="11.0025251754918" fill="#ffffff" fill-rule="evenodd" stroke="#ffffff" stroke-width="19.2344144658825" stroke-linecap="square" stroke-linejoin="bevel"/><ellipse id="shape51" transform="matrix(6.85595750486097 0 0 6.31298876398572 815.884408675788 242.4253979197)" rx="3.50080346492922" ry="3.50080346492919" cx="3.50080346492922" cy="3.50080346492919" fill="#ffffff" fill-rule="evenodd" stroke="#ffffff" stroke-width="1.70039025439419" stroke-linecap="square" stroke-linejoin="bevel"/><ellipse id="shape043" transform="matrix(6.85595718495356 0 0 6.31298846941391 797.152016491126 298.581965795501)" rx="3.50080346492922" ry="3.50080346492919" cx="3.50080346492922" cy="3.50080346492919" fill="#ffffff" fill-rule="evenodd" stroke="#ffffff" stroke-width="1.70039025439419" stroke-linecap="square" stroke-linejoin="bevel"/><ellipse id="shape044" transform="matrix(6.85595761712467 0 0 6.31298886735851 591.176303527575 306.120403542047)" rx="8.50195127197094" ry="8.00183649126677" cx="8.50195127197094" cy="8.00183649126677" fill="#ffffff" fill-rule="evenodd" stroke="#ffffff" stroke-width="1.70039025439419" stroke-linecap="square" stroke-linejoin="bevel"/><ellipse id="shape045" transform="matrix(6.85595761712467 0 0 6.31298886735851 496.620667380424 190.030872523176)" rx="8.50195127197094" ry="8.00183649126677" cx="8.50195127197094" cy="8.00183649126677" fill="#ffffff" fill-rule="evenodd" stroke="#ffffff" stroke-width="1.70039025439419" stroke-linecap="square" stroke-linejoin="bevel"/><ellipse id="shape046" transform="matrix(6.85595761712467 0 0 6.31298886735851 558.445506399717 288.260475692987)" rx="8.50195127197094" ry="8.00183649126677" cx="8.50195127197094" cy="8.00183649126677" fill="#ffffff" fill-rule="evenodd" stroke="#ffffff" stroke-width="1.70039025439419" stroke-linecap="square" stroke-linejoin="bevel"/><ellipse id="shape047" transform="matrix(6.85595761712467 0 0 6.31298886735851 588.751800036617 309.469140013746)" rx="8.50195127197094" ry="8.00183649126677" cx="8.50195127197094" cy="8.00183649126677" fill="#ffffff" fill-rule="evenodd" stroke="#ffffff" stroke-width="1.70039025439419" stroke-linecap="square" stroke-linejoin="bevel"/><path id="shape61" transform="matrix(6.85595750486097 0 0 6.31298876398572 127.632830198279 671.645492849386)" fill="none" stroke="#ffffff" stroke-width="1.70039025439419" stroke-linecap="square" stroke-linejoin="bevel" d="M4.59725 0L11.1395 10.0786L18.9194 20.8644L20.8644 23.6935L21.5717 24.9312L3.88998 25.4617L2.82908 24.0472L0.353635 22.6326L0 12.7308L0.884086 9.37132C0.884086 9.37132 2.12181 6.24754 4.59725 0Z" sodipodi:nodetypes="ccccccccccc"/><path id="shape71" transform="matrix(6.85595750486097 0 0 6.31298876398572 133.693932104232 684.482145782593)" fill="none" stroke="#ffffff" stroke-width="1.70039025439419" stroke-linecap="square" stroke-linejoin="bevel" d="M4.24361 0L18.831 22.1906L3.44794 22.6326L0.176817 19.5383L0 11.6699L3.0943 3.18271L5.83497 3.44794L17.0629 21.3949L3.80157 21.8369L1.0609 19.2731L0.972495 12.6424L4.24361 0" sodipodi:nodetypes="cccccccccccc"/><path id="shape81" transform="matrix(6.85595750486097 0 0 6.31298876398572 147.028700916192 710.155791318055)" fill="none" stroke="#ffffff" stroke-width="1.70039025439419" stroke-linecap="square" stroke-linejoin="bevel" d="M2.29862 0L14.499 17.0629L0 16.7976L0.61886 2.38703L3.18271 2.65226L12.9077 16.2672L1.32613 16.1788L1.32613 4.0668L3.53635 4.42043L11.1395 15.7367L2.74067 15.2947L2.38703 5.30452L9.28291 14.6758L3.44794 13.9686L3.18271 8.48723L7.33792 13.6149L3.88998 13.0845L2.29862 0" sodipodi:nodetypes="cccccccccccccccccc"/><path id="shape91" transform="matrix(6.85595750486097 0 0 6.31298876398572 149.453204336542 646.529800208437)" fill="none" stroke="#ffffff" stroke-width="1.70039025439419" stroke-linecap="square" stroke-linejoin="bevel" d="M0 5.74656L1.0609 0.176817L1.94499 0L3.44794 5.56974L0 5.74656" sodipodi:nodetypes="ccccc"/><path id="shape101" transform="matrix(6.85595750486097 0 0 6.31298876398572 179.759454843922 529.882106669922)" fill="none" stroke="#ffffff" stroke-width="1.70039025439419" stroke-linecap="square" stroke-linejoin="bevel" d="M0 13.3497L3.97839 5.21611L8.39882 0L40.4912 38.0157L36.778 40.2259L31.3851 42.2593L23.6935 45L19.6267 43.7623L9.10609 30.501L3.62475 21.6601L0 13.3497" sodipodi:nodetypes="ccccccccccc"/><path id="shape1111" transform="matrix(6.85595750486097 0 0 6.31298876398572 192.488097631737 539.370192937447)" fill="none" stroke="#ffffff" stroke-width="1.70039025439419" stroke-linecap="square" stroke-linejoin="bevel" d="M6.54224 0L37.22 35.8055L20.5108 42.7898L0 14.5874L0.265226 9.37132L5.83497 0.972495L36.0707 35.275L21.3949 41.9057L1.14931 13.4381L1.14931 9.63654L5.92338 3.00589L33.9489 34.6562L22.1906 40.5796L2.38703 12.2888L2.82908 9.45972L6.1886 5.48134L32.446 34.391L23.0747 39.7839L3.80157 12.112L5.92338 7.1611L6.54224 0" sodipodi:nodetypes="ccccccccccccccccccccc"/><path id="shape011" transform="matrix(6.85595743949278 0 0 6.31298870379447 229.461897638638 586.810750544021)" fill="none" stroke="#ffffff" stroke-width="1.24028465614635" stroke-linecap="square" stroke-linejoin="bevel" d="M1.32613 0L24.4892 25.1081L18.5658 30.8546L0 4.50884L1.76817 1.59136L23.4283 24.666L18.7426 29.6169L0.972495 4.68566L2.47544 3.27112L22.1022 24.0471L19.0079 28.2908L2.21022 5.1277L20.776 23.6935L18.831 26.611C18.831 26.611 12.9961 17.7407 1.32613 0Z" sodipodi:nodetypes="ccccccccccccccc"/><ellipse id="shape111" transform="matrix(6.85595743949278 0 0 6.31298870379447 304.141097503648 682.857416118973)" rx="6.50149214915425" ry="7.50172171056261" cx="6.50149214915425" cy="7.50172171056261" fill="#ffffff" fill-rule="evenodd" stroke="#ffffff" stroke-width="1.24028465614635" stroke-linecap="square" stroke-linejoin="bevel"/><ellipse id="shape0211" transform="matrix(6.85595764467876 0 0 6.31298889273042 207.3422163307 643.432439376398)" rx="4.50103302633755" ry="3.50080346492922" cx="4.50103302633755" cy="3.50080346492922" fill="#ffffff" fill-rule="evenodd" stroke="#ffffff" stroke-width="1.24028465614635" stroke-linecap="square" stroke-linejoin="bevel"/><ellipse id="shape0311" transform="matrix(6.85595764467876 0 0 6.31298889273042 225.525992436078 675.245435723219)" rx="4.50103302633755" ry="3.50080346492922" cx="4.50103302633755" cy="3.50080346492922" fill="#ffffff" fill-rule="evenodd" stroke="#ffffff" stroke-width="1.24028465614635" stroke-linecap="square" stroke-linejoin="bevel"/><ellipse id="shape0411" transform="matrix(6.85595764467876 0 0 6.31298889273042 243.709768541449 697.570345440289)" rx="4.50103302633755" ry="3.50080346492922" cx="4.50103302633755" cy="3.50080346492922" fill="#ffffff" fill-rule="evenodd" stroke="#ffffff" stroke-width="1.24028465614635" stroke-linecap="square" stroke-linejoin="bevel"/><ellipse id="shape0511" transform="matrix(6.85595764467876 0 0 6.31298889273042 264.318048127542 715.988395956869)" rx="4.50103302633755" ry="3.50080346492922" cx="4.50103302633755" cy="3.50080346492922" fill="#ffffff" fill-rule="evenodd" stroke="#ffffff" stroke-width="1.24028465614635" stroke-linecap="square" stroke-linejoin="bevel"/><ellipse id="shape0611" transform="matrix(6.85595764467876 0 0 6.31298889273042 354.630802784228 730.499587272962)" rx="4.50103302633755" ry="3.50080346492922" cx="4.50103302633755" cy="3.50080346492922" fill="#ffffff" fill-rule="evenodd" stroke="#ffffff" stroke-width="1.24028465614635" stroke-linecap="square" stroke-linejoin="bevel"/><ellipse id="shape0711" transform="matrix(6.85595764467876 0 0 6.31298889273042 294.018215766313 758.4057244193)" rx="4.50103302633755" ry="3.50080346492922" cx="4.50103302633755" cy="3.50080346492922" fill="#ffffff" fill-rule="evenodd" stroke="#ffffff" stroke-width="1.24028465614635" stroke-linecap="square" stroke-linejoin="bevel"/><ellipse id="shape0811" transform="matrix(6.85595764467876 0 0 6.31298889273042 276.440565531125 656.827385206638)" rx="4.50103302633755" ry="3.50080346492922" cx="4.50103302633755" cy="3.50080346492922" fill="#ffffff" fill-rule="evenodd" stroke="#ffffff" stroke-width="1.24028465614635" stroke-linecap="square" stroke-linejoin="bevel"/><path id="shape211" transform="matrix(6.85595743949278 0 0 6.31298870379447 277.56838280491 469.745349431897)" fill="none" stroke="#ffffff" stroke-width="1.24028465614635" stroke-linecap="square" stroke-linejoin="bevel" d="M0 3.75086L13.7532 0L18.1292 6.75152L24.5056 14.5033L32.3824 23.3804L41.6346 32.1324L48.1361 36.8835L46.5107 38.1338L42.2597 40.5093L39.7591 41.6346L35.5082 45.7605L28.6316 41.0094L20.1296 32.8825L11.3776 22.1301L3.12572 9.87727L0 3.75086" sodipodi:nodetypes="cccccccccccccccc"/><path id="shape311" transform="matrix(6.85595743949278 0 0 6.31298870379447 281.854340155521 476.059787776221)" fill="none" stroke="#ffffff" stroke-width="1.24028465614635" stroke-linecap="square" stroke-linejoin="bevel" d="M0 3.5008L13.003 0L45.7605 35.5082L35.008 44.3852L0.875201 5.75129L13.128 1.12526L43.76 35.1331L35.5082 42.3847L0 3.5008" sodipodi:nodetypes="ccccccccc"/><ellipse id="shape411" transform="matrix(6.85595743949278 0 0 6.31298870379447 304.141097503648 499.73871637018)" rx="4.50103302633755" ry="4.00091824563339" cx="4.50103302633755" cy="4.00091824563339" fill="#ffffff" fill-rule="evenodd" stroke="#ffffff" stroke-width="1.24028465614635" stroke-linecap="square" stroke-linejoin="bevel"/><ellipse id="shape0911" transform="matrix(6.85595749731887 0 0 6.31298875704093 319.13030001079 512.277973924818)" rx="4.50103302633755" ry="4.00091824563339" cx="4.50103302633755" cy="4.00091824563339" fill="#ffffff" fill-rule="evenodd" stroke="#ffffff" stroke-width="1.24028465614635" stroke-linecap="square" stroke-linejoin="bevel"/><ellipse id="shape01011" transform="matrix(6.85595749731887 0 0 6.31298875704093 334.119474639345 524.817168816988)" rx="4.50103302633755" ry="4.00091824563339" cx="4.50103302633755" cy="4.00091824563339" fill="#ffffff" fill-rule="evenodd" stroke="#ffffff" stroke-width="1.24028465614635" stroke-linecap="square" stroke-linejoin="bevel"/><ellipse id="shape0112" transform="matrix(6.85595749731887 0 0 6.31298875704093 349.108649267901 537.356363709153)" rx="4.50103302633755" ry="4.00091824563339" cx="4.50103302633755" cy="4.00091824563339" fill="#ffffff" fill-rule="evenodd" stroke="#ffffff" stroke-width="1.24028465614635" stroke-linecap="square" stroke-linejoin="bevel"/><ellipse id="shape01211" transform="matrix(6.85595749731887 0 0 6.31298875704093 364.097823896451 549.895558601323)" rx="4.50103302633755" ry="4.00091824563339" cx="4.50103302633755" cy="4.00091824563339" fill="#ffffff" fill-rule="evenodd" stroke="#ffffff" stroke-width="1.24028465614635" stroke-linecap="square" stroke-linejoin="bevel"/><ellipse id="shape01311" transform="matrix(6.85595749731887 0 0 6.31298875704093 379.086998525007 562.434753493493)" rx="4.50103302633755" ry="4.00091824563339" cx="4.50103302633755" cy="4.00091824563339" fill="#ffffff" fill-rule="evenodd" stroke="#ffffff" stroke-width="1.24028465614635" stroke-linecap="square" stroke-linejoin="bevel"/><ellipse id="shape01411" transform="matrix(6.85595749731887 0 0 6.31298875704093 394.076173153563 574.973948385663)" rx="4.50103302633755" ry="4.00091824563339" cx="4.50103302633755" cy="4.00091824563339" fill="#ffffff" fill-rule="evenodd" stroke="#ffffff" stroke-width="1.24028465614635" stroke-linecap="square" stroke-linejoin="bevel"/><ellipse id="shape01511" transform="matrix(6.85595749731887 0 0 6.31298875704093 409.065347782118 587.513143277834)" rx="4.50103302633755" ry="4.00091824563339" cx="4.50103302633755" cy="4.00091824563339" fill="#ffffff" fill-rule="evenodd" stroke="#ffffff" stroke-width="1.24028465614635" stroke-linecap="square" stroke-linejoin="bevel"/><ellipse id="shape01611" transform="matrix(6.85595749731887 0 0 6.31298875704093 424.054522410675 600.052338170003)" rx="4.50103302633755" ry="4.00091824563339" cx="4.50103302633755" cy="4.00091824563339" fill="#ffffff" fill-rule="evenodd" stroke="#ffffff" stroke-width="1.24028465614635" stroke-linecap="square" stroke-linejoin="bevel"/><ellipse id="shape0171" transform="matrix(6.85595749731887 0 0 6.31298875704093 439.043697039224 612.591533062174)" rx="4.50103302633755" ry="4.00091824563339" cx="4.50103302633755" cy="4.00091824563339" fill="#ffffff" fill-rule="evenodd" stroke="#ffffff" stroke-width="1.24028465614635" stroke-linecap="square" stroke-linejoin="bevel"/><ellipse id="shape0181" transform="matrix(6.85595749731887 0 0 6.31298875704093 454.032871667779 625.130727954344)" rx="4.50103302633755" ry="4.00091824563339" cx="4.50103302633755" cy="4.00091824563339" fill="#ffffff" fill-rule="evenodd" stroke="#ffffff" stroke-width="1.24028465614635" stroke-linecap="square" stroke-linejoin="bevel"/><ellipse id="shape0191" transform="matrix(6.85595749731887 0 0 6.31298875704093 469.022046296336 637.669922846508)" rx="4.50103302633755" ry="4.00091824563339" cx="4.50103302633755" cy="4.00091824563339" fill="#ffffff" fill-rule="evenodd" stroke="#ffffff" stroke-width="1.24028465614635" stroke-linecap="square" stroke-linejoin="bevel"/><ellipse id="shape0201" transform="matrix(6.85595749731887 0 0 6.31298875704093 484.011220924892 650.209117738679)" rx="4.50103302633755" ry="4.00091824563339" cx="4.50103302633755" cy="4.00091824563339" fill="#ffffff" fill-rule="evenodd" stroke="#ffffff" stroke-width="1.24028465614635" stroke-linecap="square" stroke-linejoin="bevel"/><ellipse id="shape0212" transform="matrix(6.85595749731887 0 0 6.31298875704093 499.000395553448 662.74831263085)" rx="4.50103302633755" ry="4.00091824563339" cx="4.50103302633755" cy="4.00091824563339" fill="#ffffff" fill-rule="evenodd" stroke="#ffffff" stroke-width="1.24028465614635" stroke-linecap="square" stroke-linejoin="bevel"/><ellipse id="shape0221" transform="matrix(6.85595749731887 0 0 6.31298875704093 501.131698708169 690.284297916628)" rx="4.50103302633755" ry="4.00091824563339" cx="4.50103302633755" cy="4.00091824563339" fill="#ffffff" fill-rule="evenodd" stroke="#ffffff" stroke-width="1.24028465614635" stroke-linecap="square" stroke-linejoin="bevel"/><ellipse id="shape0231" transform="matrix(6.85595749731887 0 0 6.31298875704093 459.986509991924 656.344193341626)" rx="4.50103302633755" ry="4.00091824563339" cx="4.50103302633755" cy="4.00091824563339" fill="#ffffff" fill-rule="evenodd" stroke="#ffffff" stroke-width="1.24028465614635" stroke-linecap="square" stroke-linejoin="bevel"/><ellipse id="shape0241" transform="matrix(6.85595749731887 0 0 6.31298875704093 435.985149907443 596.357031767203)" rx="4.50103302633755" ry="4.00091824563339" cx="4.50103302633755" cy="4.00091824563339" fill="#ffffff" fill-rule="evenodd" stroke="#ffffff" stroke-width="1.24028465614635" stroke-linecap="square" stroke-linejoin="bevel"/><ellipse id="shape0251" transform="matrix(6.85595749731887 0 0 6.31298875704093 399.983109780722 566.363450979994)" rx="4.50103302633755" ry="4.00091824563339" cx="4.50103302633755" cy="4.00091824563339" fill="#ffffff" fill-rule="evenodd" stroke="#ffffff" stroke-width="1.24028465614635" stroke-linecap="square" stroke-linejoin="bevel"/><ellipse id="shape0261" transform="matrix(6.85595749731887 0 0 6.31298875704093 381.982089717366 541.895003495691)" rx="4.50103302633755" ry="4.00091824563339" cx="4.50103302633755" cy="4.00091824563339" fill="#ffffff" fill-rule="evenodd" stroke="#ffffff" stroke-width="1.24028465614635" stroke-linecap="square" stroke-linejoin="bevel"/><ellipse id="shape0271" transform="matrix(6.85595749731887 0 0 6.31298875704093 357.980729632884 515.058641738718)" rx="4.50103302633755" ry="4.00091824563339" cx="4.50103302633755" cy="4.00091824563339" fill="#ffffff" fill-rule="evenodd" stroke="#ffffff" stroke-width="1.24028465614635" stroke-linecap="square" stroke-linejoin="bevel"/><ellipse id="shape0281" transform="matrix(6.85595749731887 0 0 6.31298875704093 339.979709569527 487.109840312402)" rx="4.50103302633755" ry="4.00091824563339" cx="4.50103302633755" cy="4.00091824563339" fill="#ffffff" fill-rule="evenodd" stroke="#ffffff" stroke-width="1.24028465614635" stroke-linecap="square" stroke-linejoin="bevel"/><ellipse id="shape0291" transform="matrix(6.85595749731887 0 0 6.31298875704093 299.691712284867 496.115327557319)" rx="4.50103302633755" ry="4.00091824563339" cx="4.50103302633755" cy="4.00091824563339" fill="#ffffff" fill-rule="evenodd" stroke="#ffffff" stroke-width="1.24028465614635" stroke-linecap="square" stroke-linejoin="bevel"/><ellipse id="shape0301" transform="matrix(6.85595749731887 0 0 6.31298875704093 296.262946558509 495.326022799762)" rx="4.50103302633755" ry="4.00091824563339" cx="4.50103302633755" cy="4.00091824563339" fill="#ffffff" fill-rule="evenodd" stroke="#ffffff" stroke-width="1.24028465614635" stroke-linecap="square" stroke-linejoin="bevel"/><path id="shape511" transform="matrix(6.85595743949278 0 0 6.31298870379447 288.71183662919 480.400929803903)" fill="none" stroke="#ffffff" stroke-width="1.24028465614635" stroke-linecap="square" stroke-linejoin="bevel" d="M0 3.31326L11.5026 0L40.5093 34.3204L34.6329 41.0719L11.8777 20.8173L5.7513 12.6904L0 3.31326" sodipodi:nodetypes="ccccccc"/><path id="shape611" transform="matrix(6.85595743949278 0 0 6.31298870379447 356.429793942873 596.033914695107)" fill="none" stroke="#ffffff" stroke-width="1.24028465614635" stroke-linecap="square" stroke-linejoin="bevel" d="M0 0L26.8812 21.5049L20.5047 22.6302L0 0" sodipodi:nodetypes="cccc"/><ellipse id="shape0312" transform="matrix(6.85595739704786 0 0 6.31298866471105 379.133645681295 593.576294016353)" rx="4.50103302633755" ry="4.00091824563339" cx="4.50103302633755" cy="4.00091824563339" fill="#ffffff" fill-rule="evenodd" stroke="#ffffff" stroke-width="1.24028465614635" stroke-linecap="square" stroke-linejoin="bevel"/><ellipse id="shape0321" transform="matrix(6.85595739704786 0 0 6.31298866471105 388.562751279446 601.469341466935)" rx="4.50103302633755" ry="4.00091824563339" cx="4.50103302633755" cy="4.00091824563339" fill="#ffffff" fill-rule="evenodd" stroke="#ffffff" stroke-width="1.24028465614635" stroke-linecap="square" stroke-linejoin="bevel"/><ellipse id="shape0331" transform="matrix(6.85595739704786 0 0 6.31298866471105 389.419942697459 606.205169937284)" rx="4.50103302633755" ry="4.00091824563339" cx="4.50103302633755" cy="4.00091824563339" fill="#ffffff" fill-rule="evenodd" stroke="#ffffff" stroke-width="1.24028465614635" stroke-linecap="square" stroke-linejoin="bevel"/><ellipse id="shape0341" transform="matrix(6.85595739704786 0 0 6.31298866471105 409.992536729785 625.148483818685)" rx="4.50103302633755" ry="4.00091824563339" cx="4.50103302633755" cy="4.00091824563339" fill="#ffffff" fill-rule="evenodd" stroke="#ffffff" stroke-width="1.24028465614635" stroke-linecap="square" stroke-linejoin="bevel"/><ellipse id="shape0351" transform="matrix(6.85595739704786 0 0 6.31298866471105 427.136365090054 640.934578719848)" rx="4.50103302633755" ry="4.00091824563339" cx="4.50103302633755" cy="4.00091824563339" fill="#ffffff" fill-rule="evenodd" stroke="#ffffff" stroke-width="1.24028465614635" stroke-linecap="square" stroke-linejoin="bevel"/><ellipse id="shape0361" transform="matrix(6.85595739704786 0 0 6.31298866471105 435.708279270188 655.931368875954)" rx="4.50103302633755" ry="4.00091824563339" cx="4.50103302633755" cy="4.00091824563339" fill="#ffffff" fill-rule="evenodd" stroke="#ffffff" stroke-width="1.24028465614635" stroke-linecap="square" stroke-linejoin="bevel"/><ellipse id="shape0371" transform="matrix(6.85595739704786 0 0 6.31298866471105 498.283252785175 701.71104408933)" rx="4.50103302633755" ry="4.00091824563339" cx="4.50103302633755" cy="4.00091824563339" fill="#ffffff" fill-rule="evenodd" stroke="#ffffff" stroke-width="1.24028465614635" stroke-linecap="square" stroke-linejoin="bevel"/><ellipse id="shape0381" transform="matrix(6.85595739704786 0 0 6.31298866471105 412.564110983827 633.041531269266)" rx="4.50103302633755" ry="4.00091824563339" cx="4.50103302633755" cy="4.00091824563339" fill="#ffffff" fill-rule="evenodd" stroke="#ffffff" stroke-width="1.24028465614635" stroke-linecap="square" stroke-linejoin="bevel"/><path id="shape711" transform="matrix(6.85595743949278 0 0 6.31298870379447 232.994229748928 521.839268659631)" fill="none" stroke="#ffffff" stroke-width="1.24028465614635" stroke-linecap="square" stroke-linejoin="bevel" d="M0 1.37532L1.12526 0L1.7504 1.50034L0 1.37532" sodipodi:nodetypes="cccc"/><ellipse id="shape0391" transform="matrix(6.85595712021324 0 0 6.3129884098008 527.844683728585 668.470429733368)" rx="4.50103302633755" ry="4.00091824563339" cx="4.50103302633755" cy="4.00091824563339" fill="#ffffff" fill-rule="evenodd" stroke="#ffffff" stroke-width="1.24028465614635" stroke-linecap="square" stroke-linejoin="bevel"/><ellipse id="shape0401" transform="matrix(6.85595712021324 0 0 6.3129884098008 324.690317659378 471.144243468809)" rx="4.50103302633755" ry="4.00091824563339" cx="4.50103302633755" cy="4.00091824563339" fill="#ffffff" fill-rule="evenodd" stroke="#ffffff" stroke-width="1.24028465614635" stroke-linecap="square" stroke-linejoin="bevel"/><path id="shape811" transform="matrix(6.85595743949278 0 0 6.31298870379447 313.570223042202 465.009327015435)" fill="none" stroke="#ffffff" stroke-width="1.24028465614635" stroke-linecap="square" stroke-linejoin="bevel" d="M0 2.75063L8.50195 0L9.37715 2.75063L0 2.75063" sodipodi:nodetypes="cccc"/><path id="shape911" transform="matrix(6.85595743949278 0 0 6.31298870379447 410.432853277726 757.052082686985)" fill="none" stroke="#ffffff" stroke-width="1.24028465614635" stroke-linecap="square" stroke-linejoin="bevel" d="M5.75132 0L9.12709 3.12572L0 6.00138L5.75132 0" sodipodi:nodetypes="cccc"/><path id="shape1011" transform="matrix(6.85595743949278 0 0 6.31298870379447 415.542511866831 466.256212033074)" fill="none" stroke="#ffffff" stroke-width="1.24028465614635" stroke-linecap="square" stroke-linejoin="bevel" d="M0 0.442043L29.9705 33.7721L31.5619 35.275L41.6405 25.7269L48.7132 18.5658L50.1277 14.8527L10.4322 0L0 0.442043" sodipodi:nodetypes="cccccccc"/><ellipse id="shape112" transform="matrix(6.85595743949278 0 0 6.31298870379447 530.439630494003 512.367592214925)" rx="5.50126258774588" ry="6.00137736845011" cx="5.50126258774588" cy="6.00137736845011" fill="#ffffff" fill-rule="evenodd" stroke="#ffffff" stroke-width="1.24028465614635" stroke-linecap="square" stroke-linejoin="bevel"/><ellipse id="shape0412" transform="matrix(6.85595715259905 0 0 6.31298843962176 596.661738619964 598.049175570367)" rx="5.50126258774588" ry="6.00137736845011" cx="5.50126258774588" cy="6.00137736845011" fill="#ffffff" fill-rule="evenodd" stroke="#ffffff" stroke-width="1.24028465614635" stroke-linecap="square" stroke-linejoin="bevel"/><ellipse id="shape0421" transform="matrix(6.85595721496824 0 0 6.31298849705152 564.691636716821 558.153348127973)" rx="5.50126258774588" ry="6.00137736845011" cx="5.50126258774588" cy="6.00137736845011" fill="#ffffff" fill-rule="evenodd" stroke="#ffffff" stroke-width="1.24028465614635" stroke-linecap="square" stroke-linejoin="bevel"/><ellipse id="shape0431" transform="matrix(6.85595721496824 0 0 6.31298849705152 538.628224445476 538.060929495436)" rx="5.50126258774588" ry="6.00137736845011" cx="5.50126258774588" cy="6.00137736845011" fill="#ffffff" fill-rule="evenodd" stroke="#ffffff" stroke-width="1.24028465614635" stroke-linecap="square" stroke-linejoin="bevel"/><circle id="shape121" transform="matrix(6.85595743949278 0 0 6.31298870379447 489.294442677576 493.42427844781)" r="4.50103302633755" cx="4.50103302633755" cy="4.50103302633755" fill="#ffffff" fill-rule="evenodd" stroke="#ffffff" stroke-width="1.24028465614635" stroke-linecap="square" stroke-linejoin="bevel"/><circle id="shape0441" transform="matrix(6.85595764586463 0 0 6.31298889382237 510.951107232825 521.737649215171)" r="4.50103302633755" cx="4.50103302633755" cy="4.50103302633755" fill="#ffffff" fill-rule="evenodd" stroke="#ffffff" stroke-width="1.24028465614635" stroke-linecap="square" stroke-linejoin="bevel"/><circle id="shape0451" transform="matrix(6.85595764586463 0 0 6.31298889382237 640.05591685602 582.573027852575)" r="4.50103302633755" cx="4.50103302633755" cy="4.50103302633755" fill="#ffffff" fill-rule="evenodd" stroke="#ffffff" stroke-width="1.24028465614635" stroke-linecap="square" stroke-linejoin="bevel"/><circle id="shape0461" transform="matrix(6.85595764586463 0 0 6.31298889382237 666.119329127366 556.34125908232)" r="4.50103302633755" cx="4.50103302633755" cy="4.50103302633755" fill="#ffffff" fill-rule="evenodd" stroke="#ffffff" stroke-width="1.24028465614635" stroke-linecap="square" stroke-linejoin="bevel"/><path id="shape13" transform="matrix(6.85595743949278 0 0 6.31298870379447 429.483415533514 471.279324834711)" fill="none" stroke="#ffffff" stroke-width="1.24028465614635" stroke-linecap="square" stroke-linejoin="bevel" d="M0 0L13.2613 1.67976L8.04519 8.92927L0.0884086 1.23772L11.7246 2.0334L8.04519 7.95678L1.50295 1.94499L10.6974 2.38703L8.222 6.50853L3.35953 2.82908L9.54813 3.00589L8.04519 6.50853L5.65815 3.71316L0 0" sodipodi:nodetypes="cccccccccccccc"/><circle id="shape0471" transform="matrix(6.85595758817354 0 0 6.31298884070022 616.859132522596 536.097936806017)" r="4.50103302633755" cx="4.50103302633755" cy="4.50103302633755" fill="#ffffff" fill-rule="evenodd" stroke="#ffffff" stroke-width="1.24028465614635" stroke-linecap="square" stroke-linejoin="bevel"/><circle id="shape048" transform="matrix(6.85595758817354 0 0 6.31298884070022 593.826349585124 523.261113790783)" r="4.50103302633755" cx="4.50103302633755" cy="4.50103302633755" fill="#ffffff" fill-rule="evenodd" stroke="#ffffff" stroke-width="1.24028465614635" stroke-linecap="square" stroke-linejoin="bevel"/><circle id="shape049" transform="matrix(6.85595758817354 0 0 6.31298884070022 647.771551728152 540.004795984567)" r="4.50103302633755" cx="4.50103302633755" cy="4.50103302633755" fill="#ffffff" fill-rule="evenodd" stroke="#ffffff" stroke-width="1.24028465614635" stroke-linecap="square" stroke-linejoin="bevel"/><ellipse id="shape050" transform="matrix(6.85595758817354 0 0 6.31298884070022 689.594236535663 546.625894706726)" rx="2.51360585355909" ry="2.87152220855069" cx="2.51360585355909" cy="2.87152220855069" fill="#ffffff" fill-rule="evenodd" stroke="#ffffff" stroke-width="1.24028465614635" stroke-linecap="square" stroke-linejoin="bevel"/><ellipse id="shape0511" transform="matrix(6.85595740299269 0 0 6.31298867018506 711.176116696479 553.901084288027)" rx="2.51360585355909" ry="2.87152220855069" cx="2.51360585355909" cy="2.87152220855069" fill="#ffffff" fill-rule="evenodd" stroke="#ffffff" stroke-width="1.24028465614635" stroke-linecap="square" stroke-linejoin="bevel"/><ellipse id="shape052" transform="matrix(6.85595740299269 0 0 6.31298867018506 572.820293210318 510.008550233078)" rx="2.51360585355909" ry="2.87152220855069" cx="2.51360585355909" cy="2.87152220855069" fill="#ffffff" fill-rule="evenodd" stroke="#ffffff" stroke-width="1.24028465614635" stroke-linecap="square" stroke-linejoin="bevel"/><ellipse id="shape053" transform="matrix(6.85595740299269 0 0 6.31298867018506 639.494138555631 526.194109687065)" rx="2.51360585355909" ry="2.87152220855069" cx="2.51360585355909" cy="2.87152220855069" fill="#ffffff" fill-rule="evenodd" stroke="#ffffff" stroke-width="1.24028465614635" stroke-linecap="square" stroke-linejoin="bevel"/><ellipse id="shape054" transform="matrix(6.85595740299269 0 0 6.31298867018506 547.363006805748 494.239705046162)" rx="2.51360585355909" ry="2.87152220855069" cx="2.51360585355909" cy="2.87152220855069" fill="#ffffff" fill-rule="evenodd" stroke="#ffffff" stroke-width="1.24028465614635" stroke-linecap="square" stroke-linejoin="bevel"/><ellipse id="shape055" transform="matrix(6.85595740299269 0 0 6.31298867018506 520.087342800848 487.125517901581)" rx="2.51360585355909" ry="2.87152220855069" cx="2.51360585355909" cy="2.87152220855069" fill="#ffffff" fill-rule="evenodd" stroke="#ffffff" stroke-width="1.24028465614635" stroke-linecap="square" stroke-linejoin="bevel"/><ellipse id="shape056" transform="matrix(6.85595740299269 0 0 6.31298867018506 492.633861925876 513.915409411629)" rx="2.51360585355909" ry="2.87152220855069" cx="2.51360585355909" cy="2.87152220855069" fill="#ffffff" fill-rule="evenodd" stroke="#ffffff" stroke-width="1.24028465614635" stroke-linecap="square" stroke-linejoin="bevel"/><ellipse id="shape057" transform="matrix(6.85595740299269 0 0 6.31298867018506 457.656378522965 473.172449406762)" rx="2.51360585355909" ry="2.87152220855069" cx="2.51360585355909" cy="2.87152220855069" fill="#ffffff" fill-rule="evenodd" stroke="#ffffff" stroke-width="1.24028465614635" stroke-linecap="square" stroke-linejoin="bevel"/><path id="shape14" transform="matrix(6.85595743949278 0 0 6.31298870379447 466.457093406826 472.395570314302)" fill="none" stroke="#ffffff" stroke-width="1.24028465614635" stroke-linecap="square" stroke-linejoin="bevel" d="M0 0.265226L3.0943 0.884086L3.27112 0L0 0.265226" sodipodi:nodetypes="cccc"/><path id="shape15" transform="matrix(6.85595743949278 0 0 6.31298870379447 462.820338206171 519.277880456887)" fill="none" stroke="#ffffff" stroke-width="1.24028465614635" stroke-linecap="square" stroke-linejoin="bevel" d="M0 0L19.3615 21.1297L23.9587 11.0511L0 0" sodipodi:nodetypes="cccc"/><ellipse id="shape16" transform="matrix(6.85595743949278 0 0 6.31298870379447 688.162850456982 600.769723128138)" rx="2.00045912281672" ry="1.5003443421125" cx="2.00045912281672" cy="1.5003443421125" fill="#ffffff" fill-rule="evenodd" stroke="#ffffff" stroke-width="1.24028465614635" stroke-linecap="square" stroke-linejoin="bevel"/><ellipse id="shape17" transform="matrix(6.85595743949278 0 0 6.31298870379447 395.003394085697 813.092694257982)" rx="8.50195127197094" ry="8.00183649126677" cx="8.50195127197094" cy="8.00183649126677" fill="#ffffff" fill-rule="evenodd" stroke="#ffffff" stroke-width="1.24028465614635" stroke-linecap="square" stroke-linejoin="bevel"/><ellipse id="shape18" transform="matrix(6.85595743949278 0 0 6.31298870379447 214.993190568049 588.140847283391)" rx="4.00091824563336" ry="4.50103302633755" cx="4.00091824563336" cy="4.50103302633755" fill="#ffffff" fill-rule="evenodd" stroke="#ffffff" stroke-width="1.24028465614635" stroke-linecap="square" stroke-linejoin="bevel"/><path id="shape19" transform="matrix(6.85595743949278 0 0 6.31298870379447 356.748258342103 462.90743332147)" fill="none" stroke="#ffffff" stroke-width="1.24028465614635" stroke-linecap="square" stroke-linejoin="bevel" d="M5.30452 3.71316L3.35953 0L0 0.530452L5.30452 3.71316" sodipodi:nodetypes="cccc"/><path id="shape20" transform="matrix(6.85595743949278 0 0 6.31298870379447 456.152898919067 512.367592214925)" fill="none" stroke="#ffffff" stroke-width="1.24028465614635" stroke-linecap="square" stroke-linejoin="bevel" d="M0 0L19.9804 22.5779L27.5835 16.7429L0 0" sodipodi:nodetypes="cccc"/><path id="shape211" transform="matrix(6.85595743949278 0 0 6.31298870379447 491.308198635303 560.020788507448)" fill="none" stroke="#ffffff" stroke-width="1.24028465614635" stroke-linecap="square" stroke-linejoin="bevel" d="M0 0L16.9745 16.6208L21.9253 8.84086L0 0" sodipodi:nodetypes="cccc"/><path id="shape22" transform="matrix(6.85595743949278 0 0 6.31298870379447 619.806880356737 577.880715897976)" fill="none" stroke="#ffffff" stroke-width="1.24028465614635" stroke-linecap="square" stroke-linejoin="bevel" d="M0 15.0295L2.65226 17.6817L19.2731 0L0 15.0295" sodipodi:nodetypes="cccc"/><path id="shape23" transform="matrix(6.85595743949278 0 0 6.31298870379447 579.802573783089 592.391906902775)" fill="none" stroke="#ffffff" stroke-width="1.24028465614635" stroke-linecap="square" stroke-linejoin="bevel" d="M0 6.36542L8.66405 15.7367L16.444 0L0 6.36542" sodipodi:nodetypes="cccc"/><path id="shape24" transform="matrix(6.85595743949278 0 0 6.31298870379447 542.440358817179 410.942025578853)" fill="none" stroke="#ffffff" stroke-width="1.24028465614635" stroke-linecap="square" stroke-linejoin="bevel" d="M44.3227 0L65.2025 0.125029L66.8278 0.4376L67.8281 0.750172L68.0156 8.56447L66.1402 10.69L62.7644 13.003L62.1393 13.4406L59.8888 14.9409L55.7628 14.7534L52.0745 14.7534L39.5753 42.8877L28.7895 68.1726L25.6068 74.3612L21.7168 75.7757L16.5891 74.1844L12.878 72.3291L9.37715 70.8287L4.87612 69.4534L1.12526 67.0779L0 64.4523L1.50034 59.7012L3.75086 57.3256L9.00207 56.3254L12.7529 57.0756L15.0198 57.9835L19.0203 57.873L44.3227 0" sodipodi:nodetypes="cccccccccccccccccccccccccccc"/><ellipse id="shape25" transform="matrix(6.85595743949278 0 0 6.31298870379447 866.458664328174 423.965461301715)" rx="5.00114780704172" ry="4.50103302633755" cx="5.00114780704172" cy="4.50103302633755" fill="#ffffff" fill-rule="evenodd" stroke="#ffffff" stroke-width="1.24028465614635" stroke-linecap="square" stroke-linejoin="bevel"/><ellipse id="shape058" transform="matrix(6.85595734053573 0 0 6.31298861267447 837.388142575467 414.088398240439)" rx="5.00114780704172" ry="4.50103302633755" cx="5.00114780704172" cy="4.50103302633755" fill="#ffffff" fill-rule="evenodd" stroke="#ffffff" stroke-width="1.24028465614635" stroke-linecap="square" stroke-linejoin="bevel"/><ellipse id="shape059" transform="matrix(6.85595734053573 0 0 6.31298861267447 866.532651621847 406.195350564011)" rx="5.00114780704172" ry="4.50103302633755" cx="5.00114780704172" cy="4.50103302633755" fill="#ffffff" fill-rule="evenodd" stroke="#ffffff" stroke-width="1.24028465614635" stroke-linecap="square" stroke-linejoin="bevel"/><ellipse id="shape060" transform="matrix(6.85595734053573 0 0 6.31298861267447 901.677500766006 410.141874402225)" rx="5.00114780704172" ry="4.50103302633755" cx="5.00114780704172" cy="4.50103302633755" fill="#ffffff" fill-rule="evenodd" stroke="#ffffff" stroke-width="1.24028465614635" stroke-linecap="square" stroke-linejoin="bevel"/><ellipse id="shape0611" transform="matrix(6.85595734053573 0 0 6.31298861267447 820.244313724654 440.135455572651)" rx="5.00114780704172" ry="4.50103302633755" cx="5.00114780704172" cy="4.50103302633755" fill="#ffffff" fill-rule="evenodd" stroke="#ffffff" stroke-width="1.24028465614635" stroke-linecap="square" stroke-linejoin="bevel"/><circle id="shape26" transform="matrix(6.85595743949278 0 0 6.31298870379447 814.981459670092 467.202727382836)" r="4.00091824563339" cx="4.00091824563339" cy="4.00091824563339" fill="#ffffff" fill-rule="evenodd" stroke="#ffffff" stroke-width="1.24028465614635" stroke-linecap="square" stroke-linejoin="bevel"/><circle id="shape062" transform="matrix(6.85595728560245 0 0 6.31298856209174 857.377161889068 460.371688089406)" r="4.00091824563339" cx="4.00091824563339" cy="4.00091824563339" fill="#ffffff" fill-rule="evenodd" stroke="#ffffff" stroke-width="1.24028465614635" stroke-linecap="square" stroke-linejoin="bevel"/><circle id="shape063" transform="matrix(6.85595728560245 0 0 6.31298856209174 898.27842279112 451.921509229416)" r="4.00091824563339" cx="4.00091824563339" cy="4.00091824563339" fill="#ffffff" fill-rule="evenodd" stroke="#ffffff" stroke-width="1.24028465614635" stroke-linecap="square" stroke-linejoin="bevel"/><circle id="shape064" transform="matrix(6.85595728560245 0 0 6.31298856209174 924.786665025163 446.495766136071)" r="4.00091824563339" cx="4.00091824563339" cy="4.00091824563339" fill="#ffffff" fill-rule="evenodd" stroke="#ffffff" stroke-width="1.24028465614635" stroke-linecap="square" stroke-linejoin="bevel"/><circle id="shape065" transform="matrix(6.85595728560245 0 0 6.31298856209174 935.738416488943 413.598590337446)" r="4.00091824563339" cx="4.00091824563339" cy="4.00091824563339" fill="#ffffff" fill-rule="evenodd" stroke="#ffffff" stroke-width="1.24028465614635" stroke-linecap="square" stroke-linejoin="bevel"/><circle id="shape066" transform="matrix(6.85595728560245 0 0 6.31298856209174 953.061190115155 412.739960797958)" r="4.00091824563339" cx="4.00091824563339" cy="4.00091824563339" fill="#ffffff" fill-rule="evenodd" stroke="#ffffff" stroke-width="1.24028465614635" stroke-linecap="square" stroke-linejoin="bevel"/><circle id="shape067" transform="matrix(6.85595728560245 0 0 6.31298856209174 946.863130721915 438.858613599052)" r="4.00091824563339" cx="4.00091824563339" cy="4.00091824563339" fill="#ffffff" fill-rule="evenodd" stroke="#ffffff" stroke-width="1.24028465614635" stroke-linecap="square" stroke-linejoin="bevel"/><circle id="shape068" transform="matrix(6.85595698533566 0 0 6.31298828560507 799.157604225761 500.712906462054)" r="4.00091824563339" cx="4.00091824563339" cy="4.00091824563339" fill="#ffffff" fill-rule="evenodd" stroke="#ffffff" stroke-width="1.24028465614635" stroke-linecap="square" stroke-linejoin="bevel"/><circle id="shape069" transform="matrix(6.85595698533566 0 0 6.31298828560507 827.058931556472 500.145374561909)" r="4.00091824563339" cx="4.00091824563339" cy="4.00091824563339" fill="#ffffff" fill-rule="evenodd" stroke="#ffffff" stroke-width="1.24028465614635" stroke-linecap="square" stroke-linejoin="bevel"/><circle id="shape070" transform="matrix(6.85595698533566 0 0 6.31298828560507 789.293455350817 524.241294753005)" r="4.00091824563339" cx="4.00091824563339" cy="4.00091824563339" fill="#ffffff" fill-rule="evenodd" stroke="#ffffff" stroke-width="1.24028465614635" stroke-linecap="square" stroke-linejoin="bevel"/><circle id="shape0711" transform="matrix(6.85595698533566 0 0 6.31298828560507 815.658173292689 527.681890960418)" r="4.00091824563339" cx="4.00091824563339" cy="4.00091824563339" fill="#ffffff" fill-rule="evenodd" stroke="#ffffff" stroke-width="1.24028465614635" stroke-linecap="square" stroke-linejoin="bevel"/><circle id="shape072" transform="matrix(6.85595698533566 0 0 6.31298828560507 779.270520594364 545.54198594038)" r="4.00091824563339" cx="4.00091824563339" cy="4.00091824563339" fill="#ffffff" fill-rule="evenodd" stroke="#ffffff" stroke-width="1.24028465614635" stroke-linecap="square" stroke-linejoin="bevel"/><circle id="shape073" transform="matrix(6.85595698533566 0 0 6.31298828560507 796.345607183244 563.527075315876)" r="4.00091824563339" cx="4.00091824563339" cy="4.00091824563339" fill="#ffffff" fill-rule="evenodd" stroke="#ffffff" stroke-width="1.24028465614635" stroke-linecap="square" stroke-linejoin="bevel"/><circle id="shape074" transform="matrix(6.85595698533566 0 0 6.31298828560507 770.377844101578 565.655724562483)" r="4.00091824563339" cx="4.00091824563339" cy="4.00091824563339" fill="#ffffff" fill-rule="evenodd" stroke="#ffffff" stroke-width="1.24028465614635" stroke-linecap="square" stroke-linejoin="bevel"/><circle id="shape075" transform="matrix(6.85595698533566 0 0 6.31298828560507 782.079507774273 593.474048582177)" r="4.00091824563339" cx="4.00091824563339" cy="4.00091824563339" fill="#ffffff" fill-rule="evenodd" stroke="#ffffff" stroke-width="1.24028465614635" stroke-linecap="square" stroke-linejoin="bevel"/><circle id="shape076" transform="matrix(6.85595698533566 0 0 6.31298828560507 759.869171185329 588.663741123303)" r="4.00091824563339" cx="4.00091824563339" cy="4.00091824563339" fill="#ffffff" fill-rule="evenodd" stroke="#ffffff" stroke-width="1.24028465614635" stroke-linecap="square" stroke-linejoin="bevel"/><circle id="shape077" transform="matrix(6.85595698533566 0 0 6.31298828560507 747.585719901546 612.338337441233)" r="4.00091824563339" cx="4.00091824563339" cy="4.00091824563339" fill="#ffffff" fill-rule="evenodd" stroke="#ffffff" stroke-width="1.24028465614635" stroke-linecap="square" stroke-linejoin="bevel"/><circle id="shape078" transform="matrix(6.85595698533566 0 0 6.31298828560507 768.100669094991 618.92907374803)" r="4.00091824563339" cx="4.00091824563339" cy="4.00091824563339" fill="#ffffff" fill-rule="evenodd" stroke="#ffffff" stroke-width="1.24028465614635" stroke-linecap="square" stroke-linejoin="bevel"/><circle id="shape079" transform="matrix(6.85595698533566 0 0 6.31298828560507 726.012637264772 650.557426927252)" r="4.00091824563339" cx="4.00091824563339" cy="4.00091824563339" fill="#ffffff" fill-rule="evenodd" stroke="#ffffff" stroke-width="1.24028465614635" stroke-linecap="square" stroke-linejoin="bevel"/><circle id="shape080" transform="matrix(6.85595698533566 0 0 6.31298828560507 761.052769614236 647.880501622079)" r="4.00091824563339" cx="4.00091824563339" cy="4.00091824563339" fill="#ffffff" fill-rule="evenodd" stroke="#ffffff" stroke-width="1.24028465614635" stroke-linecap="square" stroke-linejoin="bevel"/><circle id="shape0811" transform="matrix(6.85595698533566 0 0 6.31298828560507 713.848272439051 675.90279688139)" r="4.00091824563339" cx="4.00091824563339" cy="4.00091824563339" fill="#ffffff" fill-rule="evenodd" stroke="#ffffff" stroke-width="1.24028465614635" stroke-linecap="square" stroke-linejoin="bevel"/><circle id="shape082" transform="matrix(6.85595698533566 0 0 6.31298828560507 749.047186732595 675.453569757826)" r="4.00091824563339" cx="4.00091824563339" cy="4.00091824563339" fill="#ffffff" fill-rule="evenodd" stroke="#ffffff" stroke-width="1.24028465614635" stroke-linecap="square" stroke-linejoin="bevel"/><circle id="shape083" transform="matrix(6.85595698533566 0 0 6.31298828560507 700.920301051396 699.057020391157)" r="4.00091824563339" cx="4.00091824563339" cy="4.00091824563339" fill="#ffffff" fill-rule="evenodd" stroke="#ffffff" stroke-width="1.24028465614635" stroke-linecap="square" stroke-linejoin="bevel"/><circle id="shape084" transform="matrix(6.85595698533566 0 0 6.31298828560507 732.520570796295 707.774448154691)" r="4.00091824563339" cx="4.00091824563339" cy="4.00091824563339" fill="#ffffff" fill-rule="evenodd" stroke="#ffffff" stroke-width="1.24028465614635" stroke-linecap="square" stroke-linejoin="bevel"/><circle id="shape085" transform="matrix(6.85595698533566 0 0 6.31298828560507 699.196736673256 726.008708993868)" r="4.00091824563339" cx="4.00091824563339" cy="4.00091824563339" fill="#ffffff" fill-rule="evenodd" stroke="#ffffff" stroke-width="1.24028465614635" stroke-linecap="square" stroke-linejoin="bevel"/><circle id="shape086" transform="matrix(6.85595698533566 0 0 6.31298828560507 722.140376665657 724.062818433446)" r="4.00091824563339" cx="4.00091824563339" cy="4.00091824563339" fill="#ffffff" fill-rule="evenodd" stroke="#ffffff" stroke-width="1.24028465614635" stroke-linecap="square" stroke-linejoin="bevel"/><circle id="shape087" transform="matrix(6.85595698533566 0 0 6.31298828560507 688.052935980688 740.105932828259)" r="4.00091824563339" cx="4.00091824563339" cy="4.00091824563339" fill="#ffffff" fill-rule="evenodd" stroke="#ffffff" stroke-width="1.24028465614635" stroke-linecap="square" stroke-linejoin="bevel"/><circle id="shape088" transform="matrix(6.85595698533566 0 0 6.31298828560507 709.609360138206 752.786287397238)" r="4.00091824563339" cx="4.00091824563339" cy="4.00091824563339" fill="#ffffff" fill-rule="evenodd" stroke="#ffffff" stroke-width="1.24028465614635" stroke-linecap="square" stroke-linejoin="bevel"/><circle id="shape089" transform="matrix(6.85595698533566 0 0 6.31298828560507 675.075876779464 771.093651710893)" r="4.00091824563339" cx="4.00091824563339" cy="4.00091824563339" fill="#ffffff" fill-rule="evenodd" stroke="#ffffff" stroke-width="1.24028465614635" stroke-linecap="square" stroke-linejoin="bevel"/><ellipse id="shape27" transform="matrix(6.85595743949278 0 0 6.31298870379447 578.402654127146 783.331498331524)" rx="5.00114780704178" ry="5.00114780704172" cx="5.00114780704178" cy="5.00114780704172" fill="#ffffff" fill-rule="evenodd" stroke="#ffffff" stroke-width="1.24028465614635" stroke-linecap="square" stroke-linejoin="bevel"/><ellipse id="shape090" transform="matrix(6.85595752113002 0 0 6.31298877896632 606.334436419837 798.815913566789)" rx="5.00114780704178" ry="5.00114780704172" cx="5.00114780704178" cy="5.00114780704172" fill="#ffffff" fill-rule="evenodd" stroke="#ffffff" stroke-width="1.24028465614635" stroke-linecap="square" stroke-linejoin="bevel"/><ellipse id="shape0911" transform="matrix(6.85595752113002 0 0 6.31298877896632 638.499948413551 814.044387624165)" rx="5.00114780704178" ry="5.00114780704172" cx="5.00114780704178" cy="5.00114780704172" fill="#ffffff" fill-rule="evenodd" stroke="#ffffff" stroke-width="1.24028465614635" stroke-linecap="square" stroke-linejoin="bevel"/><ellipse id="shape092" transform="matrix(6.85595752113002 0 0 6.31298877896632 655.4256453859 821.411358899784)" rx="5.00114780704178" ry="5.00114780704172" cx="5.00114780704178" cy="5.00114780704172" fill="#ffffff" fill-rule="evenodd" stroke="#ffffff" stroke-width="1.24028465614635" stroke-linecap="square" stroke-linejoin="bevel"/><ellipse id="shape093" transform="matrix(6.85595752113002 0 0 6.31298877896632 676.720859620525 779.29379759596)" rx="5.00114780704178" ry="5.00114780704172" cx="5.00114780704178" cy="5.00114780704172" fill="#ffffff" fill-rule="evenodd" stroke="#ffffff" stroke-width="1.24028465614635" stroke-linecap="square" stroke-linejoin="bevel"/><ellipse id="shape094" transform="matrix(6.85595752113002 0 0 6.31298877896632 668.39331225957 798.814059935418)" rx="5.00114780704178" ry="5.00114780704172" cx="5.00114780704178" cy="5.00114780704172" fill="#ffffff" fill-rule="evenodd" stroke="#ffffff" stroke-width="1.24028465614635" stroke-linecap="square" stroke-linejoin="bevel"/><ellipse id="shape095" transform="matrix(6.85595752113002 0 0 6.31298877896632 577.282057048947 790.337155148738)" rx="5.00114780704178" ry="5.00114780704172" cx="5.00114780704178" cy="5.00114780704172" fill="#ffffff" fill-rule="evenodd" stroke="#ffffff" stroke-width="1.24028465614635" stroke-linecap="square" stroke-linejoin="bevel"/><ellipse id="shape096" transform="matrix(6.85595752113002 0 0 6.31298877896632 563.132917922197 787.836297832787)" rx="5.00114780704178" ry="5.00114780704172" cx="5.00114780704178" cy="5.00114780704172" fill="#ffffff" fill-rule="evenodd" stroke="#ffffff" stroke-width="1.24028465614635" stroke-linecap="square" stroke-linejoin="bevel"/><ellipse id="shape097" transform="matrix(6.85595752113002 0 0 6.31298877896632 552.780900774197 778.953408356753)" rx="5.00114780704178" ry="5.00114780704172" cx="5.00114780704178" cy="5.00114780704172" fill="#ffffff" fill-rule="evenodd" stroke="#ffffff" stroke-width="1.24028465614635" stroke-linecap="square" stroke-linejoin="bevel"/><ellipse id="shape098" transform="matrix(6.85595752113002 0 0 6.31298877896632 556.012893621111 773.164852479311)" rx="5.00114780704178" ry="5.00114780704172" cx="5.00114780704178" cy="5.00114780704172" fill="#ffffff" fill-rule="evenodd" stroke="#ffffff" stroke-width="1.24028465614635" stroke-linecap="square" stroke-linejoin="bevel"/><ellipse id="shape099" transform="matrix(6.85595752113002 0 0 6.31298877896632 616.00022491909 779.607424047284)" rx="5.00114780704178" ry="5.00114780704172" cx="5.00114780704178" cy="5.00114780704172" fill="#ffffff" fill-rule="evenodd" stroke="#ffffff" stroke-width="1.24028465614635" stroke-linecap="square" stroke-linejoin="bevel"/><ellipse id="shape0100" transform="matrix(6.85595752113002 0 0 6.31298877896632 654.926262546886 763.271895754571)" rx="5.00114780704178" ry="5.00114780704172" cx="5.00114780704178" cy="5.00114780704172" fill="#ffffff" fill-rule="evenodd" stroke="#ffffff" stroke-width="1.24028465614635" stroke-linecap="square" stroke-linejoin="bevel"/><ellipse id="shape01011" transform="matrix(6.85595752113002 0 0 6.31298877896632 578.024752779948 775.190537211176)" rx="5.00114780704178" ry="5.00114780704172" cx="5.00114780704178" cy="5.00114780704172" fill="#ffffff" fill-rule="evenodd" stroke="#ffffff" stroke-width="1.24028465614635" stroke-linecap="square" stroke-linejoin="bevel"/><path id="shape28" transform="matrix(6.85595743949278 0 0 6.31298870379447 731.516017804772 434.023986040916)" fill="none" stroke="#ffffff" stroke-width="1.24028465614635" stroke-linecap="square" stroke-linejoin="bevel" d="M0 34.6045L15.6258 0L19.2111 1.97966L2.59172 36.295C2.59172 36.295 1.72781 35.7315 0 34.6045Z" sodipodi:nodetypes="ccccc"/><path id="shape29" transform="matrix(6.85595743949278 0 0 6.31298870379447 796.96980767019 481.369263097045)" fill="none" stroke="#ffffff" stroke-width="1.24028465614635" stroke-linecap="square" stroke-linejoin="bevel" d="M0 36.2241L13.3046 0L16.6078 1.73238C16.0939 2.00237 10.558 13.4996 0 36.2241Z" sodipodi:nodetypes="cccc"/><circle id="shape0102" transform="matrix(6.85595710233233 0 0 6.312988393336 577.69700133679 510.117722693394)" r="3.50080346492922" cx="3.50080346492922" cy="3.50080346492922" fill="#ffffff" fill-rule="evenodd" stroke="#ffffff" stroke-width="1.24028465614635" stroke-linecap="square" stroke-linejoin="bevel"/><circle id="shape0103" transform="matrix(6.85595710233233 0 0 6.312988393336 485.865678206537 474.76223277848)" r="3.50080346492922" cx="3.50080346492922" cy="3.50080346492922" fill="#ffffff" fill-rule="evenodd" stroke="#ffffff" stroke-width="1.24028465614635" stroke-linecap="square" stroke-linejoin="bevel"/><circle id="shape0104" transform="matrix(6.85595710233233 0 0 6.312988393336 447.260627462322 478.288496526952)" r="3.50080346492922" cx="3.50080346492922" cy="3.50080346492922" fill="#ffffff" fill-rule="evenodd" stroke="#ffffff" stroke-width="1.24028465614635" stroke-linecap="square" stroke-linejoin="bevel"/><circle id="shape0105" transform="matrix(6.85595710233233 0 0 6.312988393336 471.138174464118 506.489634892698)" r="3.50080346492922" cx="3.50080346492922" cy="3.50080346492922" fill="#ffffff" fill-rule="evenodd" stroke="#ffffff" stroke-width="1.24028465614635" stroke-linecap="square" stroke-linejoin="bevel"/>
</svg>
